<?xml version="1.0" encoding="utf-8"?>
<!-- Generator: Adobe Illustrator 27.3.1, SVG Export Plug-In . SVG Version: 6.00 Build 0)  -->
<svg version="1.2" baseProfile="tiny" id="Layer_1" xmlns="http://www.w3.org/2000/svg" xmlns:xlink="http://www.w3.org/1999/xlink"
	 x="0px" y="0px" viewBox="0 0 102.73 23.27" overflow="visible" xml:space="preserve">
<g id="SVGRepo_iconCarrier">
	<circle fill="#2995CC" cx="64.6" cy="11.63" r="11.63"/>
	<g>
		<path fill="#F5F5F5" d="M63.53,11.05c0-1.75,0-3.5,0-5.24c-1.79,0.28-3.25,0.57-5.02,0.85c0,1.78,0,2.67,0,4.46
			C60.28,11.09,61.73,11.07,63.53,11.05z"/>
		<path fill="#F5F5F5" d="M64.24,11.04c1.79-0.02,3.97-0.04,5.74-0.06c0-2.05,0-4.1,0-6.16c-1.77,0.28-3.94,0.57-5.74,0.85
			C64.24,7.46,64.24,9.25,64.24,11.04z"/>
		<path fill="#F5F5F5" d="M64.32,11.91c0,1.79,0,3.58,0,5.37c1.77,0.28,3.9,0.57,5.66,0.85c0-2.05,0-4.1,0-6.16
			C68.21,11.95,66.09,11.93,64.32,11.91z"/>
		<path fill="#F5F5F5" d="M63.53,11.9c-1.79-0.02-3.25-0.04-5.02-0.06c0,1.78,0,2.67,0,4.46c1.77,0.28,3.23,0.57,5.02,0.85
			C63.53,15.39,63.53,13.65,63.53,11.9z"/>
	</g>
</g>
<g>
	<circle fill="#4AB8A1" cx="91.12" cy="11.63" r="11.62"/>
	<g>
		<path fill="#F5F5F5" d="M96.93,9.37c-2.65-2.81-4.9-0.8-6-0.8c-1.1,0-4.4-2.42-6.41,1.91c-1.34,2.9,1.15,6.95,1.65,7.62
			c1.97,2.63,3.5,0.8,4.88,0.8c1.83,0,3.46,2.79,6.33-3.39c-1.64-0.98-2.24-1.99-2.24-3.25C95.15,11,95.95,10.05,96.93,9.37z"/>
		<path fill="#F5F5F5" d="M93.95,3.37c-1.4,0.12-3.3,1.44-3.21,3.6C92.36,7.16,94.29,5.18,93.95,3.37z"/>
	</g>
</g>
<g id="SVGRepo_iconCarrier_00000028318431403975581510000017030880206633713032_">
	<path fill="#001E36" d="M26.5,8.43c0-2.94,0-4.41,0.57-5.53c0.5-0.99,1.3-1.79,2.29-2.29c1.12-0.57,2.59-0.57,5.53-0.57h6.4
		c2.94,0,4.41,0,5.53,0.57c0.99,0.5,1.79,1.3,2.29,2.29c0.57,1.12,0.57,2.59,0.57,5.53v6.4c0,2.94,0,4.41-0.57,5.53
		c-0.5,0.99-1.3,1.79-2.29,2.29c-1.12,0.57-2.59,0.57-5.53,0.57h-6.4c-2.94,0-4.41,0-5.53-0.57c-0.99-0.5-1.79-1.3-2.29-2.29
		c-0.57-1.12-0.57-2.59-0.57-5.53V8.43z"/>
	<path fill="#31A8FF" d="M31.47,17.03V6.83c0-0.07,0.03-0.11,0.1-0.11c1,0,2-0.06,2.99-0.06c1.62,0,3.37,0.55,3.99,2.25
		c0.14,0.42,0.22,0.84,0.22,1.29c0,0.85-0.19,1.56-0.58,2.11c-1.08,1.55-2.95,1.53-4.63,1.53v3.18c0.01,0.09-0.07,0.14-0.14,0.14
		h-1.84C31.5,17.16,31.47,17.12,31.47,17.03z M33.57,8.64v3.33c0.66,0.05,1.36,0.05,2-0.16c0.71-0.2,1.09-0.81,1.09-1.55
		c0.02-0.62-0.32-1.22-0.9-1.45C35.13,8.55,34.25,8.54,33.57,8.64z"/>
	<path fill="#31A8FF" d="M44.79,11.31c-0.29-0.15-0.6-0.27-0.93-0.33c-0.41-0.1-2.04-0.44-2.04,0.41c0.01,0.48,0.77,0.71,1.1,0.85
		c1.17,0.4,2.5,1.12,2.47,2.57c0.04,1.8-1.71,2.52-3.2,2.52c-0.78,0.01-1.59-0.11-2.3-0.45c-0.07-0.04-0.11-0.11-0.11-0.19v-1.72
		c-0.01-0.07,0.07-0.13,0.12-0.08c0.7,0.42,1.53,0.63,2.33,0.64c0.36,0,1.06-0.03,1.06-0.56c0-0.5-0.85-0.73-1.18-0.86
		c-0.49-0.17-0.95-0.42-1.38-0.72c-0.59-0.42-0.97-1.1-0.96-1.85c0-1.7,1.6-2.46,3.05-2.46c0.68-0.01,1.4,0.04,2.03,0.32
		c0.09,0.03,0.11,0.12,0.11,0.21v1.61C44.98,11.31,44.87,11.35,44.79,11.31z"/>
</g>
<g id="SVGRepo_iconCarrier_00000013189449401207919890000013820805683711279038_">
	<path fill="#330000" d="M0,8.44c0-2.93,0-4.4,0.57-5.52c0.5-0.99,1.3-1.79,2.29-2.29c1.12-0.57,2.59-0.57,5.52-0.57h6.39
		c2.93,0,4.4,0,5.52,0.57c0.99,0.5,1.79,1.3,2.29,2.29c0.57,1.12,0.57,2.59,0.57,5.52v6.39c0,2.93,0,4.4-0.57,5.52
		c-0.5,0.99-1.3,1.79-2.29,2.29c-1.12,0.57-2.59,0.57-5.52,0.57H8.38c-2.93,0-4.4,0-5.52-0.57c-0.99-0.5-1.79-1.3-2.29-2.29
		C0,19.23,0,17.76,0,14.83V8.44z"/>
	<path fill="#FF9A00" d="M11.22,14.61H7.63L6.9,16.93c-0.02,0.09-0.1,0.15-0.19,0.14H4.9c-0.1,0-0.14-0.06-0.11-0.18L7.9,7.73
		c0.03-0.1,0.06-0.2,0.09-0.33c0.04-0.21,0.06-0.43,0.06-0.65C8.04,6.69,8.1,6.63,8.16,6.64h2.47c0.07,0,0.11,0.03,0.12,0.08
		l3.53,10.19c0.03,0.11,0,0.16-0.09,0.16h-2.02c-0.07,0.01-0.14-0.04-0.16-0.11L11.22,14.61z M8.19,12.6h2.45
		c-0.4-1.38-0.86-2.74-1.23-4.13C9.02,9.86,8.59,11.25,8.19,12.6z"/>
	<path fill="#FF9A00" d="M16.37,8.33c-0.16,0.01-0.32-0.02-0.46-0.08c-0.15-0.06-0.28-0.15-0.39-0.27c-0.11-0.12-0.2-0.26-0.25-0.42
		c-0.06-0.16-0.08-0.32-0.07-0.49c-0.01-0.16,0.02-0.33,0.08-0.48c0.06-0.15,0.15-0.29,0.27-0.4c0.11-0.11,0.25-0.2,0.4-0.26
		c0.15-0.06,0.31-0.09,0.46-0.08c0.37,0,0.67,0.11,0.88,0.34c0.11,0.12,0.19,0.26,0.25,0.41c0.05,0.15,0.08,0.31,0.07,0.47
		c0.01,0.17-0.02,0.33-0.08,0.49c-0.06,0.16-0.14,0.3-0.26,0.42c-0.12,0.12-0.26,0.21-0.41,0.27C16.7,8.31,16.54,8.34,16.37,8.33z
		 M15.3,16.92V9.3c0-0.1,0.04-0.14,0.12-0.14h1.91c0.08,0,0.12,0.05,0.12,0.14v7.61c0,0.11-0.04,0.16-0.12,0.16h-1.89
		C15.35,17.08,15.3,17.02,15.3,16.92z"/>
</g>
</svg>
