<?xml version="1.0" encoding="utf-8"?>
<!-- Generator: Adobe Illustrator 27.3.1, SVG Export Plug-In . SVG Version: 6.00 Build 0)  -->
<svg version="1.2" baseProfile="tiny" id="Layer_1" xmlns="http://www.w3.org/2000/svg" xmlns:xlink="http://www.w3.org/1999/xlink"
	 x="0px" y="0px" viewBox="0 0 302 78" overflow="visible" xml:space="preserve">
<g id="SVGRepo_iconCarrier">
	<circle fill="#2995CC" cx="188.09" cy="39" r="32.6"/>
	<g>
		<path fill="#F5F5F5" d="M185.07,37.36c0-4.9,0-9.79,0-14.69c-5.02,0.79-9.11,1.59-14.07,2.38c0,5,0,7.49,0,12.49
			C175.96,37.48,180.05,37.42,185.07,37.36z"/>
		<path fill="#F5F5F5" d="M187.08,37.33c5.02-0.06,11.12-0.12,16.07-0.18c0-5.75,0-11.5,0-17.25c-4.96,0.79-11.05,1.58-16.07,2.38
			C187.08,27.3,187.08,32.32,187.08,37.33z"/>
		<path fill="#F5F5F5" d="M187.28,39.77c0,5.02,0,10.03,0,15.05c4.96,0.79,10.92,1.59,15.87,2.38c0-5.75,0-11.5,0-17.25
			C198.2,39.89,192.24,39.83,187.28,39.77z"/>
		<path fill="#F5F5F5" d="M185.07,39.74c-5.02-0.06-9.11-0.12-14.07-0.18c0,5,0,7.49,0,12.49c4.96,0.79,9.04,1.58,14.07,2.38
			C185.07,49.54,185.07,44.64,185.07,39.74z"/>
	</g>
</g>
<g>
	<circle fill="#4AB8A1" cx="262.38" cy="39" r="32.55"/>
	<g>
		<path fill="#F5F5F5" d="M278.66,32.66c-7.43-7.87-13.73-2.25-16.82-2.25c-3.09,0-12.33-6.77-17.95,5.34
			c-3.76,8.11,3.22,19.47,4.64,21.36c5.53,7.36,9.81,2.25,13.67,2.25c5.11,0,9.69,7.81,17.74-9.5c-4.61-2.76-6.27-5.57-6.27-9.11
			C273.67,37.22,275.93,34.58,278.66,32.66z"/>
		<path fill="#F5F5F5" d="M270.32,15.86c-3.92,0.34-9.26,4.03-9.01,10.08C265.87,26.48,271.27,20.92,270.32,15.86z"/>
	</g>
</g>
<g id="SVGRepo_iconCarrier_00000028318431403975581510000017030880206633713032_">
	<path fill="#001E36" d="M81.32,30.03c0-8.23,0-12.34,1.6-15.49c1.41-2.76,3.66-5.01,6.42-6.42c3.14-1.6,7.26-1.6,15.49-1.6h17.94
		c8.23,0,12.34,0,15.49,1.6c2.76,1.41,5.01,3.66,6.42,6.42c1.6,3.14,1.6,7.26,1.6,15.49v17.94c0,8.23,0,12.34-1.6,15.49
		c-1.41,2.76-3.66,5.01-6.42,6.42c-3.14,1.6-7.26,1.6-15.49,1.6h-17.94c-8.23,0-12.34,0-15.49-1.6c-2.76-1.41-5.01-3.66-6.42-6.42
		c-1.6-3.14-1.6-7.26-1.6-15.49V30.03z"/>
	<path fill="#31A8FF" d="M95.23,54.12V25.55c0-0.19,0.08-0.31,0.27-0.31c2.8,0,5.59-0.17,8.39-0.17c4.54,0,9.46,1.55,11.18,6.3
		c0.41,1.17,0.62,2.36,0.62,3.61c0,2.39-0.54,4.36-1.62,5.91c-3.02,4.34-8.27,4.27-12.96,4.27v8.91c0.04,0.26-0.19,0.39-0.41,0.39
		h-5.14C95.34,54.48,95.23,54.37,95.23,54.12z M101.14,30.6v9.33c1.86,0.14,3.81,0.15,5.6-0.44c1.98-0.57,3.06-2.28,3.06-4.33
		c0.05-1.75-0.9-3.42-2.52-4.05C105.51,30.37,103.04,30.32,101.14,30.6z"/>
	<path fill="#31A8FF" d="M132.58,38.09c-0.82-0.43-1.69-0.75-2.59-0.94c-1.16-0.27-5.73-1.23-5.73,1.16
		c0.04,1.33,2.16,1.99,3.09,2.37c3.28,1.13,7,3.14,6.93,7.2c0.1,5.04-4.79,7.06-8.98,7.06c-2.18,0.02-4.45-0.32-6.45-1.25
		c-0.19-0.1-0.31-0.32-0.31-0.54v-4.83c-0.02-0.19,0.19-0.36,0.35-0.22c1.96,1.18,4.27,1.76,6.54,1.79c1,0,2.98-0.1,2.96-1.56
		c0-1.41-2.37-2.06-3.31-2.41c-1.37-0.49-2.67-1.17-3.86-2.01c-1.66-1.19-2.71-3.09-2.68-5.18c-0.01-4.75,4.49-6.88,8.54-6.88
		c1.89-0.02,3.93,0.12,5.69,0.89c0.25,0.07,0.31,0.34,0.31,0.58v4.51C133.1,38.1,132.79,38.2,132.58,38.09z"/>
</g>
<g id="SVGRepo_iconCarrier_00000013189449401207919890000013820805683711279038_">
	<path fill="#330000" d="M7.07,30.04c0-8.22,0-12.33,1.6-15.47c1.41-2.76,3.65-5.01,6.41-6.41c3.14-1.6,7.25-1.6,15.47-1.6h17.92
		c8.22,0,12.33,0,15.47,1.6c2.76,1.41,5.01,3.65,6.41,6.41c1.6,3.14,1.6,7.25,1.6,15.47v17.92c0,8.22,0,12.33-1.6,15.47
		c-1.41,2.76-3.65,5.01-6.41,6.41c-3.14,1.6-7.25,1.6-15.47,1.6H30.54c-8.22,0-12.33,0-15.47-1.6c-2.76-1.41-5.01-3.65-6.41-6.41
		c-1.6-3.14-1.6-7.25-1.6-15.47V30.04z"/>
	<path fill="#FF9A00" d="M38.5,47.33H28.45l-2.05,6.52c-0.06,0.24-0.28,0.41-0.52,0.4h-5.09c-0.29,0-0.39-0.16-0.3-0.49l8.7-25.71
		c0.09-0.27,0.17-0.57,0.26-0.91c0.11-0.6,0.17-1.2,0.17-1.81c-0.03-0.18,0.13-0.34,0.3-0.31h6.92c0.2,0,0.32,0.07,0.35,0.22
		l9.88,28.57c0.09,0.3,0,0.45-0.26,0.45h-5.66c-0.2,0.02-0.39-0.11-0.44-0.31L38.5,47.33z M30.02,41.71h6.88
		c-1.13-3.86-2.4-7.67-3.44-11.56C32.34,34.04,31.12,37.93,30.02,41.71z"/>
	<path fill="#FF9A00" d="M52.95,29.75c-0.44,0.02-0.89-0.06-1.3-0.23c-0.41-0.17-0.79-0.43-1.09-0.75c-0.31-0.34-0.55-0.74-0.7-1.18
		c-0.16-0.44-0.23-0.9-0.21-1.37c-0.02-0.46,0.06-0.92,0.23-1.35c0.17-0.43,0.42-0.81,0.75-1.13c0.32-0.32,0.7-0.56,1.11-0.73
		c0.41-0.16,0.86-0.24,1.3-0.23c1.04,0,1.86,0.32,2.46,0.96c0.3,0.33,0.53,0.72,0.69,1.15c0.15,0.43,0.22,0.88,0.21,1.33
		c0.02,0.47-0.06,0.93-0.22,1.37c-0.16,0.44-0.41,0.84-0.72,1.17c-0.33,0.33-0.72,0.59-1.15,0.76
		C53.87,29.69,53.41,29.77,52.95,29.75z M49.95,53.8V32.47c0-0.27,0.12-0.4,0.35-0.4h5.35c0.23,0,0.35,0.13,0.35,0.4V53.8
		c0,0.3-0.12,0.45-0.35,0.45h-5.31C50.08,54.25,49.95,54.1,49.95,53.8z"/>
</g>
</svg>
