<?xml version="1.0" encoding="utf-8"?>
<!-- Generator: Adobe Illustrator 27.3.1, SVG Export Plug-In . SVG Version: 6.00 Build 0)  -->
<svg version="1.2" baseProfile="tiny" id="Layer_1" xmlns="http://www.w3.org/2000/svg" xmlns:xlink="http://www.w3.org/1999/xlink"
	 x="0px" y="0px" viewBox="0 0 170.92 170.96" overflow="visible" xml:space="preserve">
<path fill="#293A64" d="M82.54,170.96c-11.06-0.47-22.14-0.74-33.18-1.48c-7.3-0.49-14.61-1.28-21.81-2.57
	c-11.64-2.09-21.08-10.45-23.76-23.1c-1.13-5.31-1.53-10.79-2.04-16.21c-0.61-6.42-1.09-12.86-1.42-19.3
	C0.06,102.98,0,97.64,0,92.31c0-8.91,0.01-17.83,0.23-26.74c0.14-5.74,0.5-11.48,1.01-17.2c0.59-6.67,1.2-13.36,2.23-19.97
	c1.66-10.67,7.68-18.16,17.47-22.72c4.01-1.87,8.29-2.39,12.58-2.87c5.21-0.58,10.42-1.18,15.65-1.65c3.36-0.3,6.73-0.43,10.1-0.58
	c15.82-0.74,31.64-0.72,47.46-0.23c7.53,0.23,15.04,0.94,22.55,1.6c4.64,0.41,9.32,0.81,13.86,1.77
	c11.12,2.35,18.85,8.95,22.51,19.75c1.29,3.81,1.83,7.94,2.24,11.97c0.95,9.19,1.81,18.4,2.34,27.62
	c0.93,16.15,0.99,32.31-0.25,48.45c-0.76,9.96-1.56,19.93-2.87,29.82c-1.84,13.9-11.65,23.49-24.92,25.68
	c-6.4,1.05-12.88,1.69-19.34,2.24c-6.72,0.57-13.45,0.97-20.19,1.17c-6.69,0.2-13.4,0.04-20.1,0.04
	C82.55,170.64,82.55,170.8,82.54,170.96z M111.16,89.04c0.05,0.44,0.1,0.72,0.1,1c-0.01,5.58-0.02,11.16-0.02,16.75
	c0,0.58,0.04,1.17,0.15,1.74c0.5,2.5,3.23,3.73,5.42,2.45c1.44-0.84,2-2.13,1.99-3.77c-0.05-5.62-0.03-11.25-0.12-16.87
	c-0.02-1.09,0.34-1.35,1.35-1.33c3.25,0.05,6.5,0.06,9.75,0.02c2.35-0.03,3.89-1.48,3.96-3.62s-1.49-3.81-3.85-3.87
	c-3.24-0.08-6.49-0.03-9.74,0.04c-1.15,0.02-1.46-0.34-1.44-1.51c0.07-5.79,0.09-11.58,0.02-17.37c-0.04-2.77-2.91-4.37-5.38-3.14
	c-1.44,0.72-2.16,1.86-2.14,3.5c0.05,5.79,0.06,11.58,0.12,17.37c0.01,0.87-0.25,1.17-1.13,1.14c-1.71-0.05-3.42-0.05-5.12,0.03
	c-1.04,0.05-1.35-0.26-1.33-1.33c0.09-5.66,0.09-11.33,0.11-17c0-0.41-0.04-0.83-0.11-1.24c-0.35-2.07-2.85-3.47-4.78-2.7
	c-1.94,0.77-2.72,1.88-2.71,4.16c0.02,5.62,0.08,11.25,0.17,16.87c0.01,0.9-0.23,1.27-1.19,1.23c-1.71-0.07-3.42-0.06-5.12,0.01
	c-0.96,0.04-1.2-0.31-1.19-1.22c0.06-4.29,0.06-8.58,0.09-12.87c0.01-1.54,0.1-3.09,0-4.62c-0.13-2.14-1.82-3.81-3.71-3.86
	s-3.72,1.68-3.94,3.81c-0.09,0.86-0.03,1.75-0.02,2.62c0.05,5,0.09,10,0.16,14.99c0.01,0.88-0.29,1.16-1.17,1.13
	c-1.71-0.06-3.42-0.05-5.12,0.02c-0.94,0.04-1.24-0.27-1.22-1.2c0.06-3.33,0.05-6.66,0.07-10c0.01-2.62,0.08-5.25,0.01-7.87
	c-0.05-1.91-1.39-2.84-3.05-3.35c-1.48-0.46-2.72,0.25-3.52,1.3c-0.62,0.82-0.98,2.04-0.99,3.08c-0.04,5.62,0.06,11.25,0.15,16.87
	c0.01,0.84-0.21,1.21-1.13,1.17c-1.71-0.07-3.42-0.08-5.12,0.01c-1,0.05-1.28-0.25-1.27-1.25c0.05-5.33,0.03-10.66,0.01-16
	c0-0.75-0.03-1.51-0.18-2.24c-0.54-2.66-3.87-3.8-5.96-2.1c-1.19,0.97-1.45,2.26-1.44,3.69c0.05,5.5,0.06,11,0.16,16.49
	c0.02,1.12-0.29,1.41-1.4,1.39c-3.33-0.09-6.66-0.12-9.99-0.02c-2.34,0.07-3.78,1.79-3.65,4.02c0.12,1.96,1.66,3.41,3.88,3.45
	c3.33,0.06,6.66,0.01,10-0.03c0.87-0.01,1.15,0.28,1.14,1.16c-0.05,5.12-0.06,10.25-0.07,15.37c0,0.79-0.04,1.59,0.02,2.37
	c0.22,2.87,3.21,4.4,5.68,2.96c1.49-0.87,1.84-2.26,1.84-3.84c-0.01-5.58,0-11.16-0.04-16.74c-0.01-0.96,0.23-1.33,1.25-1.28
	c1.7,0.08,3.42,0.05,5.12,0c0.8-0.02,1.12,0.21,1.11,1.05c-0.04,3.04,0.1,6.09-0.06,9.12c-0.15,2.96,1.58,4.78,3.89,4.75
	c1.72-0.02,3.83-1.35,3.68-4.71c-0.14-2.99-0.07-6-0.15-8.99c-0.02-0.9,0.22-1.27,1.19-1.23c1.79,0.08,3.58,0.06,5.37,0.02
	c0.71-0.01,0.95,0.23,0.94,0.94c-0.04,5.29-0.07,10.58-0.08,15.87c0,0.83,0,1.67,0.07,2.49c0.17,2.05,3.13,3.92,5.13,2.79
	c1.65-0.93,2.43-2.17,2.41-4.01c-0.04-5.62-0.04-11.25-0.1-16.87c-0.01-0.92,0.23-1.26,1.19-1.22c1.71,0.07,3.42,0.1,5.12,0.01
	c1.07-0.05,1.21,0.33,1.18,1.3c-0.1,3.29-0.14,6.58-0.1,9.87c0.02,1.74,0.95,3.01,2.61,3.6c2.47,0.87,4.9-1.02,4.93-3.86
	c0.03-3.21-0.03-6.41-0.06-9.62c-0.01-0.66-0.06-1.28,0.89-1.27C106.78,89.06,108.9,89.04,111.16,89.04z M29.13,54.17
	c0.05,0,0.11,0.01,0.16,0.01c0,2.79-0.03,5.58,0.01,8.37c0.03,2.02,1.18,3.61,2.77,3.99c2.52,0.61,4.67-1.05,4.69-3.72
	c0.04-4.79-0.06-9.58,0-14.37c0.08-6.83,4.94-11.57,11.77-11.57c4,0,8,0.01,12,0.01c0.96,0,1.92,0.04,2.87-0.05
	c2.45-0.23,3.91-2.65,3.02-4.93c-0.78-1.99-2.41-2.51-4.32-2.5c-5.17,0.03-10.33,0.08-15.5,0.14c-8.64,0.1-15.46,7.37-16.85,14.55
	C29.12,47.37,29.32,50.8,29.13,54.17z M116.21,29.26c0,0.08-0.01,0.17-0.01,0.25c-3.08,0-6.16-0.08-9.24,0.03
	c-1.86,0.07-3.22,1.67-3.26,3.48c-0.05,1.97,1.28,3.57,3.2,3.81c0.78,0.1,1.58,0.12,2.37,0.12c4.33-0.02,8.66-0.1,13-0.08
	c3.67,0.02,6.73,1.42,8.98,4.37c1.7,2.24,2.38,4.83,2.37,7.61c-0.02,4.62-0.08,9.25-0.08,13.87c0,2.27,1.59,4,3.59,4.03
	c2.08,0.03,3.96-1.68,3.96-3.85c0.01-5.58,0.11-11.17-0.17-16.74c-0.4-7.98-6.73-15.05-14.61-16.33
	C122.98,29.31,119.57,29.43,116.21,29.26z M54.32,141.26c0-0.05,0-0.09,0-0.14c3,0,5.99,0.06,8.99-0.02
	c1.89-0.05,3.3-1.61,3.39-3.49c0.09-1.91-1.26-3.58-3.17-3.84c-0.78-0.11-1.58-0.1-2.36-0.09c-4.33,0.02-8.66,0.09-12.99,0.08
	c-4.65-0.01-9.05-2.87-10.6-7.17c-0.61-1.67-0.75-3.57-0.79-5.38c-0.1-4.54-0.03-9.07-0.02-13.61c0-1.1-0.26-2.05-1.16-2.76
	c-1.25-0.98-2.62-1.27-4.08-0.6c-1.47,0.67-2.18,1.91-2.18,3.49c-0.03,5.29-0.05,10.57-0.02,15.86c0.01,1.07,0.19,2.16,0.42,3.21
	c1.53,7.18,7.71,13.09,14.99,14.03C47.89,141.24,51.12,141.13,54.32,141.26z M116.03,141.1L116.03,141.1
	c2.54-0.01,5.08,0.07,7.62-0.02c8.55-0.3,16.02-6.6,16.96-15.11c0.69-6.21,0.34-12.54,0.45-18.82c0-0.08-0.03-0.16-0.04-0.25
	c-0.44-2.5-3.11-3.79-5.38-2.64c-1.68,0.85-2.18,2.27-2.15,4.02c0.07,4.66,0.14,9.33,0.16,13.99c0.02,5.33-3.23,9.64-8.39,11.04
	c-1.15,0.31-2.38,0.41-3.58,0.41c-4.45,0.03-8.91-0.03-13.36-0.04c-1.3,0-2.58,0.05-3.56,1.14c-1.01,1.12-1.38,2.37-0.85,3.79
	c0.53,1.44,1.54,2.43,3.13,2.47C110.03,141.15,113.03,141.1,116.03,141.1z"/>
</svg>
