<?xml version="1.0" encoding="utf-8"?>
<!-- Generator: Adobe Illustrator 27.3.1, SVG Export Plug-In . SVG Version: 6.00 Build 0)  -->
<svg version="1.1" id="Layer_1" xmlns="http://www.w3.org/2000/svg" xmlns:xlink="http://www.w3.org/1999/xlink" x="0px" y="0px"
	 viewBox="0 0 819 172" style="enable-background:new 0 0 819 172;" xml:space="preserve">
<style type="text/css">
	.st0{fill:#FFFFFF;}
</style>
<g>
	<path class="st0" d="M0,70C0,46.67,0,23.33,0,0c23.25,0,46.5,0,69.75,0c0.53,0.08,1.05,0.22,1.58,0.22
		c10.19,0.01,20.38,0.01,30.57,0c0.87,0,1.73-0.14,2.6-0.22C342.67,0,580.83,0,819,0c0,57.33,0,114.67,0,172
		c-240.33,0-480.67,0-721,0c-0.57-0.07-1.14-0.19-1.72-0.19c-6.15-0.01-12.3-0.01-18.45,0.01c-1.45,0.01-2.89,0.11-4.34,0.17
		c-24.5,0-49,0-73.5,0c0-23.08,0-46.17,0-69.25c0.06-0.36,0.18-0.72,0.18-1.08c0.02-9.95,0.04-19.89,0.04-29.84
		C0.22,71.22,0.08,70.61,0,70z M83.34,171.65c0-0.16,0.01-0.32,0.01-0.48c6.7,0,13.4,0.15,20.1-0.04c6.74-0.2,13.48-0.6,20.19-1.17
		c6.46-0.55,12.94-1.19,19.34-2.24c13.27-2.19,23.07-11.78,24.92-25.68c1.31-9.89,2.11-19.87,2.87-29.82
		c1.24-16.14,1.17-32.3,0.25-48.45c-0.53-9.22-1.39-18.43-2.34-27.62c-0.42-4.03-0.95-8.16-2.24-11.97
		c-3.66-10.81-11.39-17.4-22.51-19.75c-4.54-0.96-9.22-1.36-13.86-1.77c-7.51-0.66-15.02-1.37-22.55-1.6
		C91.7,0.55,75.87,0.54,60.06,1.27c-3.37,0.16-6.74,0.28-10.1,0.58c-5.22,0.47-10.43,1.07-15.65,1.65c-4.3,0.48-8.57,1-12.58,2.87
		C11.94,10.94,5.91,18.42,4.25,29.1c-1.03,6.61-1.64,13.3-2.23,19.97c-0.5,5.72-0.87,11.46-1.01,17.2
		c-0.21,8.91-0.23,17.82-0.23,26.74c0,5.33,0.05,10.67,0.33,15.99c0.33,6.44,0.81,12.88,1.42,19.3c0.51,5.42,0.92,10.9,2.04,16.21
		c2.69,12.65,12.12,21.02,23.76,23.1c7.19,1.29,14.51,2.08,21.81,2.57C61.2,170.91,72.28,171.19,83.34,171.65z M379.02,132.89
		c-0.09,0.01-0.18,0.01-0.26,0.02c-0.07-0.1-0.16-0.2-0.21-0.31c-2.3-4.61-4.44-9.31-6.94-13.8c-5.51-9.88-11.2-19.66-16.86-29.46
		c-0.23-0.41-0.89-0.8-1.36-0.8c-6-0.04-12-0.03-18,0.01c-1.99,0.01-2.84,0.95-2.84,2.98c0,1.67,0,3.33,0,5
		c0,21.41-0.01,42.82-0.01,64.24c0,3.1,0.59,3.68,3.64,3.69c3.79,0.01,7.58,0.02,11.37,0.02c2.39,0,3.16-0.76,3.14-3.14
		c-0.13-14.54-0.27-29.07-0.4-43.61c0-0.38,0.04-0.75,0.06-1.13c0.11-0.02,0.21-0.04,0.32-0.05c0.22,0.43,0.47,0.84,0.67,1.28
		c1.01,2.14,1.89,4.36,3.03,6.43c7.22,13.12,14.5,26.2,21.74,39.3c0.43,0.78,0.99,0.97,1.82,0.96c5.21-0.03,10.41-0.02,15.62-0.01
		c2.1,0,2.94-0.84,2.94-2.95c-0.02-21.7-0.03-43.41-0.05-65.11c0-1.79,0.04-3.58,0-5.37c-0.03-1.53-0.87-2.48-2.39-2.5
		c-4.41-0.06-8.83-0.06-13.25,0.01c-1.67,0.02-2.45,0.96-2.5,2.65c-0.02,0.87-0.01,1.75,0,2.62c0.15,11.83,0.29,23.65,0.46,35.48
		C378.79,130.52,378.94,131.7,379.02,132.89z M621,42.68c0,12.04,0.01,24.08-0.03,36.12c0,1.06,0.29,1.4,1.35,1.54
		c7.49,0.99,15.02,1.44,22.56,1.05c7.2-0.37,14.3-1.37,21.1-4.09c8.98-3.58,15.43-9.62,19.03-18.65c3.39-8.5,4.23-17.27,2.67-26.24
		c-1.88-10.8-7.52-18.96-17.41-24.01c-5.91-3.02-12.31-4.08-18.79-4.59c-9.71-0.76-19.39-0.08-29.03,1.23
		c-1.1,0.15-1.49,0.6-1.48,1.77C621.02,18.76,621,30.72,621,42.68z M299.8,39.49c0.62-0.41,1.19-0.81,1.77-1.19
		c11.55-7.53,9.71-24.07-0.81-30.1c-5.12-2.93-10.64-4.01-16.34-4.41c-9.38-0.66-18.72-0.05-28.02,1.25
		c-1.82,0.26-1.84,0.32-1.84,2.21c0,9.79,0,19.57,0,29.36c0,13.83,0,27.65-0.02,41.48c0,2.18-0.05,2.21,2.07,2.4
		c3.52,0.32,7.05,0.7,10.58,0.85c8.25,0.37,16.49,0.18,24.6-1.63c4.8-1.07,9.31-2.75,13.1-6.06c9.61-8.38,9.5-23.49-0.3-31.17
		C303.15,41.38,301.51,40.55,299.8,39.49z M673.52,128.02c0.18,1.68,0.34,4.22,0.76,6.72c0.96,5.8,2.8,11.29,6.12,16.21
		c5.43,8.05,13.24,12.29,22.57,14.04c5.19,0.97,10.38,0.59,15.51-0.51c11.68-2.51,20.31-8.92,24.89-20.16
		c4.16-10.2,4.9-20.71,1.8-31.31c-2.75-9.4-8.15-16.91-17.03-21.5c-5.96-3.08-12.39-4.26-19.08-3.98
		c-12.49,0.51-22.2,5.92-29.14,16.36C675.22,110.97,673.85,118.91,673.52,128.02z M534.51,44.24c0.24,1.92,0.46,4.92,1.02,7.85
		c1.47,7.68,4.54,14.57,10.28,20.11c5.1,4.92,11.34,7.47,18.16,8.78c5.19,1,10.39,0.58,15.51-0.51
		c12.11-2.57,20.74-9.41,25.25-21.09c3.94-10.21,4.46-20.65,1.22-31.09c-2.94-9.49-8.62-16.94-17.81-21.29
		c-5.79-2.74-11.94-3.78-18.33-3.47c-12.43,0.6-22.09,6.02-28.96,16.45C536.21,27.05,534.87,34.95,534.51,44.24z M254.46,141.12
		C254.46,141.12,254.46,141.12,254.46,141.12c-0.01-6.17-0.01-12.33-0.01-18.5c0-2.21-0.81-3.08-2.97-3.08
		c-8.08-0.01-16.17-0.02-24.25,0c-2.2,0-3.22,1.02-3.23,3.21c-0.02,3.21-0.02,6.42,0,9.62c0.01,2.11,0.94,3.05,3.04,3.08
		c2.37,0.03,4.75,0.06,7.12-0.03c1.08-0.04,1.44,0.22,1.42,1.36c-0.08,3.54-0.08,7.08-0.02,10.62c0.02,0.93-0.28,1.31-1.16,1.33
		c-2.45,0.08-4.91,0.24-7.36,0.25c-8,0.03-15.25-4.93-18.19-12.36c-1.59-4.02-2.09-8.22-1.85-12.5c0.38-6.8,3.15-12.35,8.83-16.28
		c3.13-2.16,6.66-3.19,10.42-3.46c6.49-0.48,12.9-0.21,19.06,2.21c1.79,0.71,2.98,0.13,3.48-1.72c1.02-3.82,1.93-7.66,3.05-11.45
		c0.4-1.35,0.07-1.92-1.14-2.43c-3.92-1.64-8.04-2.45-12.21-3c-7.85-1.05-15.64-0.54-23.28,1.51
		c-12.25,3.28-21.36,10.43-25.94,22.44c-3.63,9.52-3.62,19.32-0.62,29.05c2.92,9.48,8.95,16.34,18.02,20.37
		c6.03,2.68,12.44,3.9,19.04,4.08c9.38,0.26,18.47-1.36,27.4-4.14c1.03-0.32,1.38-0.77,1.37-1.83
		C254.44,153.37,254.46,147.25,254.46,141.12z M804.13,128.16c0.2-0.1,0.41-0.21,0.61-0.32c3.24-1.85,6.06-4.21,7.88-7.48
		c2.58-4.66,3.51-9.65,2.38-14.95c-1.18-5.52-3.71-10.18-8.71-13.11c-4.86-2.85-10.25-4.16-15.82-4.53
		c-9.88-0.66-19.72-0.14-29.53,1.24c-1.09,0.15-1.4,0.64-1.38,1.61c0.02,1.71,0.01,3.42,0.01,5.12c0,21.54-0.01,43.08-0.01,64.61
		c0,3.58,0.53,4.1,4.16,4.1c4,0,8,0,12-0.01c2.4,0,3.3-0.91,3.3-3.34c0-8.04,0-16.08,0-24.12c0-0.49,0-0.98,0-1.48
		c1.75,0,3.36-0.05,4.97,0.01c3.86,0.14,6.61,1.94,7.77,5.7c1.19,3.85,2.15,7.77,3.27,11.64c0.97,3.35,2,6.68,3.03,10.02
		c0.35,1.14,1.03,1.69,2.38,1.66c5.04-0.1,10.08-0.06,15.12-0.06c1.58,0,2.65-1.43,2.21-2.97c-1.85-6.51-3.72-13.02-5.54-19.54
		c-1.46-5.22-3.56-10.04-7.99-13.5C804.18,128.42,804.18,128.31,804.13,128.16z M521.36,128.08c3.32-1.84,6.39-4.3,8.31-7.81
		c2.51-4.58,3.42-9.5,2.34-14.72c-1.16-5.58-3.68-10.28-8.71-13.24c-4.9-2.88-10.33-4.18-15.94-4.54
		c-8.96-0.57-17.89-0.24-26.8,0.94c-3.98,0.53-4,0.45-4,4.39c-0.01,22.66-0.01,45.32,0,67.98c0,2.59,0.79,3.36,3.36,3.36
		c4.21,0.01,8.41,0.01,12.62,0.01c2.6,0,3.46-0.85,3.46-3.44c0-8.04,0-16.08,0-24.12c0-0.48,0-0.96,0-1.4
		c1.73,0,3.27-0.04,4.81,0.01c3.96,0.11,6.77,1.92,7.96,5.79c1.07,3.49,1.96,7.04,2.98,10.55c1.05,3.63,2.16,7.24,3.24,10.87
		c0.4,1.32,1.18,1.85,2.66,1.82c4.95-0.11,9.91-0.06,14.87-0.07c1.59,0,2.66-1.44,2.23-2.94c-1.51-5.23-3.02-10.46-4.49-15.7
		c-1.09-3.88-1.84-7.91-4-11.36C524.83,132.21,523,130.21,521.36,128.08z M421,51.51c1.71,0,3.25-0.04,4.79,0.01
		c3.96,0.11,6.8,1.9,7.97,5.77c1.34,4.45,2.47,8.97,3.76,13.44c0.83,2.87,1.78,5.71,2.72,8.54c0.24,0.73,0.67,1.26,1.63,1.25
		c5.29-0.05,10.58-0.03,15.87-0.05c1.32-0.01,2.39-1.53,2.03-2.8c-1.85-6.56-3.72-13.11-5.55-19.67
		c-1.45-5.22-3.54-10.05-7.97-13.51c-0.08-0.06-0.09-0.22-0.13-0.33c7.71-3.86,12.13-12.04,11.15-20.61
		c-0.99-8.63-5.37-14.59-13.71-17.43c-4.08-1.39-8.25-2.25-12.57-2.44c-9.47-0.42-18.89,0.02-28.27,1.39
		c-0.83,0.12-1.16,0.5-1.16,1.28c0,0.87-0.01,1.75-0.01,2.62c0,22.66-0.01,45.32-0.01,67.98c0,2.77,0.75,3.51,3.47,3.52
		c4.21,0.01,8.41,0,12.62,0c2.48,0,3.35-0.88,3.36-3.42c0-8,0-15.99,0-23.99C421,52.56,421,52.07,421,51.51z M378.27,80.5
		c0-0.01,0-0.02,0-0.03c2.75,0,5.5,0.01,8.25,0c2.05-0.01,3.02-1.34,2.42-3.28c-3.41-10.91-6.81-21.81-10.21-32.72
		c-4.04-12.93-8.08-25.86-12.09-38.79c-0.28-0.91-0.78-1.15-1.63-1.14c-2.92,0.02-5.83,0.01-8.75,0.01c-4.25,0-8.5-0.01-12.74-0.01
		c-0.69,0-1.25,0.02-1.52,0.91c-1.25,4.26-2.59,8.5-3.89,12.75c-6,19.63-12.01,39.25-18,58.88c-0.66,2.15,0.28,3.39,2.5,3.4
		c5.12,0.01,10.25-0.03,15.37,0.03c1.05,0.01,1.44-0.37,1.69-1.33c1.49-5.62,3.06-11.23,4.56-16.85c0.21-0.77,0.57-0.96,1.31-0.96
		c5.54,0.03,11.08,0.06,16.61-0.01c1.01-0.01,1.35,0.28,1.6,1.19c1.59,5.59,3.26,11.17,4.86,16.76c0.26,0.93,0.7,1.25,1.66,1.23
		C372.94,80.45,375.61,80.5,378.27,80.5z M576.29,88.54c0,0,0-0.01,0-0.01c-3.62,0-7.25,0-10.87,0c-0.67,0-1.17,0.08-1.41,0.88
		c-3.17,10.46-6.38,20.9-9.57,31.35c-4.12,13.47-8.25,26.93-12.36,40.41c-0.62,2.04,0.35,3.3,2.51,3.31
		c5.16,0.01,10.33-0.02,15.49,0.02c0.91,0.01,1.32-0.27,1.56-1.17c1.49-5.62,3.07-11.22,4.56-16.85c0.23-0.85,0.56-1.12,1.44-1.11
		c5.5,0.04,10.99,0.07,16.49-0.01c1.08-0.02,1.4,0.34,1.66,1.28c1.58,5.56,3.24,11.09,4.83,16.64c0.26,0.9,0.65,1.27,1.64,1.26
		c5.41-0.06,10.83-0.04,16.24-0.06c2.12-0.01,3.05-1.32,2.41-3.37c-3.27-10.47-6.55-20.94-9.81-31.4
		c-4.17-13.37-8.34-26.73-12.48-40.11c-0.3-0.96-0.9-1.05-1.69-1.05C583.37,88.54,579.83,88.54,576.29,88.54z M432.54,105.15
		c0.3-0.03,0.5-0.06,0.7-0.06c8.46,0,16.91,0.01,25.37,0.02c1.6,0,2.58-0.98,2.57-2.55c-0.04-3.71-0.08-7.41-0.12-11.12
		c-0.02-2.2-0.73-2.92-2.92-2.92c-13.92,0-27.83,0-41.75,0.01c-2.63,0-3.39,0.78-3.39,3.46c0,23,0,46,0,68.99
		c0,2.72,0.75,3.47,3.5,3.47c13.91,0.01,27.83,0.02,41.74,0.02c0.83,0,1.67,0.01,2.49-0.11c1.12-0.16,1.87-0.9,1.89-2.01
		c0.05-4.08,0.04-8.16-0.02-12.25c-0.02-1.19-0.89-1.99-2.07-2.12c-0.74-0.08-1.5-0.09-2.25-0.09c-7.67-0.01-15.33-0.01-23-0.01
		c-0.9,0-1.8,0-2.71,0c-0.05-0.34-0.09-0.49-0.09-0.65c-0.01-4.12,0.03-8.25-0.04-12.37c-0.02-1.08,0.22-1.42,1.36-1.41
		c7.58,0.06,15.16,0.04,22.75,0.04c2.09,0,2.94-0.84,2.94-2.95c-0.01-3.37-0.03-6.75-0.04-10.12c-0.01-2.66-0.76-3.42-3.4-3.43
		c-7.37,0-14.75,0-22.12,0c-0.48,0-0.95,0-1.39,0C432.54,112.92,432.54,109.06,432.54,105.15z M289.51,105.15
		c0.31-0.03,0.47-0.06,0.63-0.06c8.5,0.01,17,0.02,25.5,0.02c1.58,0,2.55-1,2.53-2.58c-0.04-3.66-0.08-7.33-0.12-10.99
		c-0.02-2.34-0.7-3.01-3.08-3.01c-13.83,0-27.66,0-41.5,0.01c-2.73,0-3.48,0.76-3.48,3.5c0,22.96,0,45.91,0,68.87
		c0,2.83,0.72,3.56,3.54,3.56c13.91,0.01,27.83,0.02,41.74,0.02c0.79,0,1.59,0.02,2.37-0.09c1.23-0.18,1.98-0.96,1.99-2.19
		c0.04-3.96,0.04-7.92-0.02-11.87c-0.02-1.46-0.89-2.24-2.38-2.36c-0.66-0.05-1.33-0.06-2-0.06c-7.67-0.01-15.33-0.01-23-0.01
		c-0.9,0-1.79,0-2.78,0c0-4.49,0.04-8.78-0.03-13.06c-0.02-1.13,0.32-1.38,1.4-1.38c7.58,0.05,15.16,0.03,22.75,0.04
		c2.03,0,2.91-0.85,2.9-2.86c-0.01-3.42-0.02-6.83-0.04-10.25c-0.01-2.64-0.76-3.39-3.44-3.39c-7.33,0-14.67,0-22,0
		c-0.49,0-0.97,0-1.51,0C289.51,112.99,289.51,109.13,289.51,105.15z M721.54,49.48c0.52,0,0.93,0,1.34,0
		c7.54,0,15.08,0.01,22.62,0.02c2.18,0,3-0.82,2.99-3.02c-0.01-3.33-0.03-6.67-0.04-10c-0.01-2.76-0.72-3.48-3.47-3.48
		c-7.33,0-14.67,0-22,0c-0.48,0-0.97,0-1.42,0c0-4.07,0-7.96,0-11.84c0.25-0.04,0.37-0.07,0.49-0.07c8.5,0.01,17,0.01,25.5,0.02
		c1.68,0,2.64-0.97,2.62-2.61c-0.04-3.62-0.08-7.25-0.11-10.87c-0.02-2.45-0.67-3.1-3.12-3.1c-13.79,0-27.58,0-41.37,0.01
		c-2.84,0-3.57,0.73-3.57,3.53c0,22.96,0,45.91,0,68.87c0,2.8,0.74,3.53,3.57,3.53c13.87,0.01,27.75,0.02,41.62,0.02
		c0.87,0,1.75,0,2.61-0.13c1.07-0.16,1.8-0.89,1.81-1.94c0.06-4.12,0.04-8.25-0.02-12.37c-0.02-1.19-0.86-1.87-2.01-2.04
		c-0.74-0.11-1.5-0.1-2.24-0.1c-7.67-0.01-15.33-0.01-23-0.01c-0.91,0-1.81,0-2.81,0C721.54,59.07,721.54,54.38,721.54,49.48z
		 M507.44,3.53c-1.49,0.16-4.19,0.36-6.85,0.79c-2.09,0.34-4.15,0.88-6.18,1.47c-9.93,2.89-17.4,8.9-22.27,18
		c-4.16,7.77-5.26,16.14-4.26,24.82c0.62,5.42,2.04,10.64,4.78,15.38c6.43,11.11,16.83,15.74,28.99,17.24
		c5.27,0.65,10.59,0.46,15.8-0.55c3.25-0.63,6.42-1.67,9.6-2.6c0.35-0.1,0.83-0.79,0.77-1.11c-0.72-4.05-1.5-8.09-2.32-12.12
		c-0.33-1.61-1.66-2.29-3.18-1.83c-5.49,1.67-11.07,2.33-16.77,1.47c-8.28-1.25-13.98-5.63-16.45-13.81
		c-1.2-3.97-1.33-8.01-0.89-12.12c1.05-9.87,7.87-16.88,17.7-18.07c5.49-0.66,10.88-0.25,16.11,1.69c1.97,0.73,3.08,0.11,3.6-1.92
		c0.95-3.7,1.9-7.41,2.87-11.11c0.45-1.72,0.47-1.73-1.13-2.4C521.35,4.26,515.09,3.42,507.44,3.53z M629,105.47c0,0.4,0,0.9,0,1.39
		c0,18.08,0,36.16,0,54.24c0,2.56,0.79,3.35,3.37,3.36c4.04,0.01,8.08,0.03,12.12,0.03c3.63,0,4.01-0.45,4-4.12
		c-0.02-17.96-0.01-35.91,0-53.87c0-0.31,0.06-0.63,0.11-1.04c0.63,0,1.17,0,1.7,0c5,0,10-0.01,15,0c2.38,0.01,3.21-0.78,3.22-3.19
		c0.01-3.58,0.01-7.17-0.01-10.75c-0.01-2.17-0.78-2.98-2.93-2.98c-17.75-0.01-35.49-0.01-53.24,0c-2.22,0-3,0.83-3.01,3.06
		c-0.02,3.54-0.04,7.08-0.03,10.62c0.01,2.64,0.64,3.25,3.25,3.25C618,105.47,623.45,105.47,629,105.47z"/>
	<path d="M104.5,0c-0.87,0.08-1.73,0.22-2.6,0.22c-10.19,0.02-20.38,0.01-30.57,0c-0.53,0-1.05-0.14-1.58-0.22
		C81.33,0,92.92,0,104.5,0z"/>
	<path d="M0,70c0.08,0.61,0.22,1.22,0.22,1.83c0,9.95-0.02,19.89-0.04,29.84c0,0.36-0.12,0.72-0.18,1.08C0,91.83,0,80.92,0,70z"/>
	<path d="M73.5,172c1.45-0.06,2.89-0.17,4.34-0.17c6.15-0.02,12.3-0.02,18.45-0.01c0.57,0,1.14,0.12,1.72,0.19
		C89.83,172,81.67,172,73.5,172z"/>
	<path d="M83.34,171.65c-11.06-0.47-22.14-0.74-33.18-1.48c-7.3-0.49-14.61-1.28-21.81-2.57c-11.64-2.09-21.08-10.45-23.76-23.1
		c-1.13-5.31-1.53-10.79-2.04-16.21c-0.61-6.42-1.09-12.86-1.42-19.3c-0.27-5.32-0.33-10.66-0.33-15.99
		c0-8.91,0.01-17.83,0.23-26.74c0.14-5.74,0.5-11.48,1.01-17.2c0.59-6.67,1.2-13.36,2.23-19.97c1.66-10.67,7.68-18.16,17.47-22.72
		c4.01-1.87,8.29-2.39,12.58-2.87c5.21-0.58,10.42-1.18,15.65-1.65c3.36-0.3,6.73-0.43,10.1-0.58c15.82-0.74,31.64-0.72,47.46-0.23
		c7.53,0.23,15.04,0.94,22.55,1.6c4.64,0.41,9.32,0.81,13.86,1.77c11.12,2.35,18.85,8.95,22.51,19.75
		c1.29,3.81,1.83,7.94,2.24,11.97c0.95,9.19,1.81,18.4,2.34,27.62c0.93,16.15,0.99,32.31-0.25,48.45
		c-0.76,9.96-1.56,19.93-2.87,29.82c-1.84,13.9-11.65,23.49-24.92,25.68c-6.4,1.05-12.88,1.69-19.34,2.24
		c-6.72,0.57-13.45,0.97-20.19,1.17c-6.69,0.2-13.4,0.04-20.1,0.04C83.35,171.33,83.35,171.49,83.34,171.65z M111.96,89.73
		c0.05,0.44,0.1,0.72,0.1,1c-0.01,5.58-0.02,11.16-0.02,16.75c0,0.58,0.04,1.17,0.15,1.74c0.5,2.5,3.23,3.73,5.42,2.45
		c1.44-0.84,2-2.13,1.99-3.77c-0.05-5.62-0.03-11.25-0.12-16.87c-0.02-1.09,0.34-1.35,1.35-1.33c3.25,0.05,6.5,0.06,9.75,0.02
		c2.35-0.03,3.89-1.48,3.96-3.62c0.07-2.14-1.49-3.81-3.85-3.87c-3.24-0.08-6.49-0.03-9.74,0.04c-1.15,0.02-1.46-0.34-1.44-1.51
		c0.07-5.79,0.09-11.58,0.02-17.37c-0.04-2.77-2.91-4.37-5.38-3.14c-1.44,0.72-2.16,1.86-2.14,3.5c0.05,5.79,0.06,11.58,0.12,17.37
		c0.01,0.87-0.25,1.17-1.13,1.14c-1.71-0.05-3.42-0.05-5.12,0.03c-1.04,0.05-1.35-0.26-1.33-1.33c0.09-5.66,0.09-11.33,0.11-17
		c0-0.41-0.04-0.83-0.11-1.24c-0.35-2.07-2.85-3.47-4.78-2.7c-1.94,0.77-2.72,1.88-2.71,4.16c0.02,5.62,0.08,11.25,0.17,16.87
		c0.01,0.9-0.23,1.27-1.19,1.23c-1.71-0.07-3.42-0.06-5.12,0.01c-0.96,0.04-1.2-0.31-1.19-1.22c0.06-4.29,0.06-8.58,0.09-12.87
		c0.01-1.54,0.1-3.09,0-4.62c-0.13-2.14-1.82-3.81-3.71-3.86c-1.89-0.05-3.72,1.68-3.94,3.81c-0.09,0.86-0.03,1.75-0.02,2.62
		c0.05,5,0.09,10,0.16,14.99c0.01,0.88-0.29,1.16-1.17,1.13c-1.71-0.06-3.42-0.05-5.12,0.02c-0.94,0.04-1.24-0.27-1.22-1.2
		c0.06-3.33,0.05-6.66,0.07-10c0.01-2.62,0.08-5.25,0.01-7.87c-0.05-1.91-1.39-2.84-3.05-3.35c-1.48-0.46-2.72,0.25-3.52,1.3
		c-0.62,0.82-0.98,2.04-0.99,3.08c-0.04,5.62,0.06,11.25,0.15,16.87c0.01,0.84-0.21,1.21-1.13,1.17c-1.71-0.07-3.42-0.08-5.12,0.01
		c-1,0.05-1.28-0.25-1.27-1.25c0.05-5.33,0.03-10.66,0.01-16c0-0.75-0.03-1.51-0.18-2.24c-0.54-2.66-3.87-3.8-5.96-2.1
		c-1.19,0.97-1.45,2.26-1.44,3.69c0.05,5.5,0.06,11,0.16,16.49c0.02,1.12-0.29,1.41-1.4,1.39c-3.33-0.09-6.66-0.12-9.99-0.02
		c-2.34,0.07-3.78,1.79-3.65,4.02c0.12,1.96,1.66,3.41,3.88,3.45c3.33,0.06,6.66,0.01,10-0.03c0.87-0.01,1.15,0.28,1.14,1.16
		c-0.05,5.12-0.06,10.25-0.07,15.37c0,0.79-0.04,1.59,0.02,2.37c0.22,2.87,3.21,4.4,5.68,2.96c1.49-0.87,1.84-2.26,1.84-3.84
		c-0.01-5.58,0-11.16-0.04-16.74c-0.01-0.96,0.23-1.33,1.25-1.28c1.7,0.08,3.42,0.05,5.12,0c0.8-0.02,1.12,0.21,1.11,1.05
		c-0.04,3.04,0.1,6.09-0.06,9.12c-0.15,2.96,1.58,4.78,3.89,4.75c1.72-0.02,3.83-1.35,3.68-4.71c-0.14-2.99-0.07-6-0.15-8.99
		c-0.02-0.9,0.22-1.27,1.19-1.23c1.79,0.08,3.58,0.06,5.37,0.02c0.71-0.01,0.95,0.23,0.94,0.94c-0.04,5.29-0.07,10.58-0.08,15.87
		c0,0.83,0,1.67,0.07,2.49c0.17,2.05,3.13,3.92,5.13,2.79c1.65-0.93,2.43-2.17,2.41-4.01c-0.04-5.62-0.04-11.25-0.1-16.87
		c-0.01-0.92,0.23-1.26,1.19-1.22c1.71,0.07,3.42,0.1,5.12,0.01c1.07-0.05,1.21,0.33,1.18,1.3c-0.1,3.29-0.14,6.58-0.1,9.87
		c0.02,1.74,0.95,3.01,2.61,3.6c2.47,0.87,4.9-1.02,4.93-3.86c0.03-3.21-0.03-6.41-0.06-9.62c-0.01-0.66-0.06-1.28,0.89-1.27
		C107.58,89.75,109.7,89.73,111.96,89.73z M29.93,54.86c0.05,0,0.11,0.01,0.16,0.01c0,2.79-0.03,5.58,0.01,8.37
		c0.03,2.02,1.18,3.61,2.77,3.99c2.52,0.61,4.67-1.05,4.69-3.72c0.04-4.79-0.06-9.58,0-14.37c0.08-6.83,4.94-11.57,11.77-11.57
		c4,0,8,0.01,12,0.01c0.96,0,1.92,0.04,2.87-0.05c2.45-0.23,3.91-2.65,3.02-4.93c-0.78-1.99-2.41-2.51-4.32-2.5
		c-5.17,0.03-10.33,0.08-15.5,0.14c-8.64,0.1-15.46,7.37-16.85,14.55C29.92,48.06,30.12,51.49,29.93,54.86z M117.01,29.95
		c0,0.08-0.01,0.17-0.01,0.25c-3.08,0-6.16-0.08-9.24,0.03c-1.86,0.07-3.22,1.67-3.26,3.48c-0.05,1.97,1.28,3.57,3.2,3.81
		c0.78,0.1,1.58,0.12,2.37,0.12c4.33-0.02,8.66-0.1,13-0.08c3.67,0.02,6.73,1.42,8.98,4.37c1.7,2.24,2.38,4.83,2.37,7.61
		c-0.02,4.62-0.08,9.25-0.08,13.87c0,2.27,1.59,4,3.59,4.03c2.08,0.03,3.96-1.68,3.96-3.85c0.01-5.58,0.11-11.17-0.17-16.74
		c-0.4-7.98-6.73-15.05-14.61-16.33C123.78,30,120.37,30.12,117.01,29.95z M55.12,141.95c0-0.05,0-0.09,0-0.14
		c3,0,5.99,0.06,8.99-0.02c1.89-0.05,3.3-1.61,3.39-3.49c0.09-1.91-1.26-3.58-3.17-3.84c-0.78-0.11-1.58-0.1-2.36-0.09
		c-4.33,0.02-8.66,0.09-12.99,0.08c-4.65-0.01-9.05-2.87-10.6-7.17c-0.61-1.67-0.75-3.57-0.79-5.38c-0.1-4.54-0.03-9.07-0.02-13.61
		c0-1.1-0.26-2.05-1.16-2.76c-1.25-0.98-2.62-1.27-4.08-0.6c-1.47,0.67-2.18,1.91-2.18,3.49c-0.03,5.29-0.05,10.57-0.02,15.86
		c0.01,1.07,0.19,2.16,0.42,3.21c1.53,7.18,7.71,13.09,14.99,14.03C48.69,141.93,51.92,141.82,55.12,141.95z M116.83,141.79
		c0,0,0-0.01,0-0.01c2.54,0,5.08,0.08,7.62-0.01c8.55-0.3,16.02-6.6,16.96-15.11c0.69-6.21,0.34-12.54,0.45-18.82
		c0-0.08-0.03-0.16-0.04-0.25c-0.44-2.5-3.11-3.79-5.38-2.64c-1.68,0.85-2.18,2.27-2.15,4.02c0.07,4.66,0.14,9.33,0.16,13.99
		c0.02,5.33-3.23,9.64-8.39,11.04c-1.15,0.31-2.38,0.41-3.58,0.41c-4.45,0.03-8.91-0.03-13.36-0.04c-1.3,0-2.58,0.05-3.56,1.14
		c-1.01,1.12-1.38,2.37-0.85,3.79c0.53,1.44,1.54,2.43,3.13,2.47C110.83,141.84,113.83,141.79,116.83,141.79z"/>
	<path d="M379.02,132.89c-0.09-1.19-0.23-2.37-0.25-3.56c-0.16-11.83-0.31-23.65-0.46-35.48c-0.01-0.87-0.03-1.75,0-2.62
		c0.05-1.69,0.83-2.62,2.5-2.65c4.41-0.06,8.83-0.06,13.25-0.01c1.52,0.02,2.36,0.96,2.39,2.5c0.04,1.79,0,3.58,0,5.37
		c0.02,21.7,0.03,43.41,0.05,65.11c0,2.1-0.84,2.95-2.94,2.95c-5.21,0-10.41-0.02-15.62,0.01c-0.83,0-1.39-0.19-1.82-0.96
		c-7.24-13.11-14.52-26.19-21.74-39.3c-1.14-2.07-2.02-4.28-3.03-6.43c-0.2-0.43-0.45-0.85-0.67-1.28
		c-0.11,0.02-0.21,0.04-0.32,0.05c-0.02,0.38-0.06,0.75-0.06,1.13c0.13,14.54,0.27,29.07,0.4,43.61c0.02,2.38-0.75,3.14-3.14,3.14
		c-3.79,0-7.58-0.01-11.37-0.02c-3.05-0.01-3.64-0.59-3.64-3.69c0-21.41,0-42.82,0.01-64.24c0-1.67-0.01-3.33,0-5
		c0.01-2.03,0.85-2.97,2.84-2.98c6-0.04,12-0.05,18-0.01c0.46,0,1.12,0.4,1.36,0.8c5.66,9.8,11.35,19.58,16.86,29.46
		c2.51,4.49,4.64,9.2,6.94,13.8c0.05,0.11,0.14,0.2,0.21,0.31C378.85,132.9,378.93,132.9,379.02,132.89z"/>
	<path d="M621,42.68c0-11.96,0.02-23.91-0.03-35.87c0-1.17,0.39-1.62,1.48-1.77c9.64-1.32,19.32-1.99,29.03-1.23
		c6.48,0.51,12.88,1.57,18.79,4.59c9.89,5.05,15.53,13.21,17.41,24.01c1.56,8.97,0.72,17.74-2.67,26.24
		c-3.6,9.03-10.06,15.07-19.03,18.65c-6.79,2.71-13.9,3.71-21.1,4.09c-7.54,0.39-15.07-0.06-22.56-1.05
		c-1.06-0.14-1.35-0.47-1.35-1.54C621.01,66.76,621,54.72,621,42.68z M640.48,42.5c-0.01,0-0.02,0-0.03,0c0,7.33,0,14.66-0.01,22
		c0,0.61,0.03,1.03,0.83,1.03c3.58,0.02,7.16,0.12,10.68-0.75c6.58-1.63,11.42-5.32,13.8-11.8c2.23-6.07,2.8-12.36,1.4-18.67
		c-1.55-6.96-5.64-11.9-12.64-14c-4.16-1.25-8.44-1.32-12.75-0.9c-1.01,0.1-1.31,0.47-1.3,1.47
		C640.5,28.08,640.48,35.29,640.48,42.5z"/>
	<path d="M299.8,39.49c1.71,1.06,3.35,1.89,4.77,3c9.8,7.68,9.91,22.79,0.3,31.17c-3.79,3.31-8.31,4.99-13.1,6.06
		c-8.11,1.82-16.34,2-24.6,1.63c-3.53-0.16-7.05-0.53-10.58-0.85c-2.11-0.19-2.07-0.23-2.07-2.4c0.02-13.83,0.02-27.65,0.02-41.48
		c0-9.79,0-19.57,0-29.36c0-1.88,0.02-1.95,1.84-2.21c9.3-1.3,18.65-1.91,28.02-1.25c5.7,0.4,11.21,1.48,16.34,4.41
		c10.53,6.02,12.36,22.57,0.81,30.1C300.99,38.68,300.42,39.08,299.8,39.49z M274.07,66.27c2.21,0,4.3,0.13,6.36-0.04
		c1.85-0.15,3.72-0.47,5.49-1.02c2.63-0.82,4.58-2.51,5.34-5.3c1.36-4.96-1.13-9.2-6.23-10.63c-3.57-1-7.23-0.87-10.95-0.95
		C274.07,54.32,274.07,60.21,274.07,66.27z M274.1,18.73c0,5.05,0,9.94,0,14.93c0.56,0,1.01,0.02,1.46,0
		c1.95-0.1,3.93-0.07,5.85-0.36c1.62-0.24,3.28-0.67,4.76-1.36c2.65-1.23,4.05-3.97,3.77-6.75c-0.33-3.28-1.87-5.13-5.11-5.97
		C281.31,18.3,277.74,18.51,274.1,18.73z"/>
	<path d="M673.52,128.02c0.33-9.11,1.7-17.05,6.4-24.13c6.94-10.44,16.65-15.85,29.14-16.36c6.7-0.28,13.12,0.9,19.08,3.98
		c8.87,4.59,14.28,12.09,17.03,21.5c3.1,10.6,2.35,21.11-1.8,31.31c-4.58,11.24-13.21,17.65-24.89,20.16
		c-5.12,1.1-10.31,1.48-15.51,0.51c-9.33-1.74-17.14-5.99-22.57-14.04c-3.32-4.92-5.16-10.41-6.12-16.21
		C673.86,132.25,673.7,129.71,673.52,128.02z M726.5,127.43c0.12-8.2-1.58-13.82-5.31-18.47c-5.05-6.28-13.84-7.19-19.96-1.99
		c-3,2.55-4.83,5.9-5.96,9.63c-1.28,4.2-1.53,8.53-1.2,12.85c0.35,4.59,1.33,9.03,3.92,12.99c4.34,6.62,11.65,8.42,18.11,5.77
		c3.9-1.6,6.14-4.87,7.88-8.49C725.97,135.6,726.49,131.14,726.5,127.43z"/>
	<path d="M534.51,44.24c0.36-9.29,1.7-17.19,6.35-24.24c6.87-10.44,16.52-15.85,28.96-16.45c6.39-0.31,12.55,0.73,18.33,3.47
		c9.18,4.34,14.86,11.8,17.81,21.29c3.24,10.44,2.72,20.88-1.22,31.09c-4.51,11.68-13.14,18.52-25.25,21.09
		c-5.12,1.09-10.32,1.5-15.51,0.51c-6.82-1.31-13.05-3.86-18.16-8.78c-5.74-5.54-8.81-12.43-10.28-20.11
		C534.97,49.16,534.75,46.16,534.51,44.24z M587.49,42.56c0-1,0.05-2-0.01-3c-0.35-5.82-2.13-11.11-6.08-15.5
		c-4.03-4.48-10.42-5.73-15.89-3.18c-5.03,2.35-7.61,6.68-9.23,11.69c-1.35,4.18-1.55,8.53-1.22,12.86c0.35,4.59,1.32,9.04,3.92,13
		c4.37,6.67,11.69,8.42,18.12,5.76c3.89-1.61,6.13-4.89,7.88-8.51C586.99,51.55,587.5,47.1,587.49,42.56z"/>
	<path d="M254.46,141.12c0,6.12-0.02,12.25,0.02,18.37c0.01,1.06-0.34,1.51-1.37,1.83c-8.93,2.77-18.02,4.4-27.4,4.14
		c-6.6-0.18-13.01-1.4-19.04-4.08c-9.07-4.03-15.1-10.9-18.02-20.37c-2.99-9.73-3.01-19.53,0.62-29.05
		c4.59-12.01,13.7-19.16,25.94-22.44c7.65-2.05,15.44-2.56,23.28-1.51c4.16,0.55,8.29,1.36,12.21,3c1.22,0.51,1.54,1.08,1.14,2.43
		c-1.12,3.79-2.03,7.63-3.05,11.45c-0.5,1.85-1.69,2.42-3.48,1.72c-6.16-2.42-12.57-2.69-19.06-2.21c-3.75,0.28-7.29,1.3-10.42,3.46
		c-5.68,3.93-8.45,9.48-8.83,16.28c-0.24,4.28,0.26,8.48,1.85,12.5c2.93,7.43,10.18,12.38,18.19,12.36
		c2.45-0.01,4.91-0.17,7.36-0.25c0.88-0.03,1.18-0.4,1.16-1.33c-0.06-3.54-0.07-7.08,0.02-10.62c0.03-1.14-0.33-1.4-1.42-1.36
		c-2.37,0.09-4.75,0.06-7.12,0.03c-2.11-0.02-3.03-0.97-3.04-3.08c-0.02-3.21-0.02-6.42,0-9.62c0.02-2.19,1.03-3.21,3.23-3.21
		c8.08-0.01,16.17-0.01,24.25,0c2.16,0,2.97,0.87,2.97,3.08C254.46,128.79,254.46,134.96,254.46,141.12
		C254.46,141.12,254.46,141.12,254.46,141.12z"/>
	<path d="M804.13,128.16c0.05,0.15,0.05,0.25,0.1,0.3c4.43,3.46,6.53,8.28,7.99,13.5c1.82,6.52,3.69,13.03,5.54,19.54
		c0.44,1.54-0.63,2.97-2.21,2.97c-5.04,0-10.08-0.04-15.12,0.06c-1.35,0.03-2.03-0.52-2.38-1.66c-1.03-3.33-2.06-6.67-3.03-10.02
		c-1.12-3.87-2.08-7.79-3.27-11.64c-1.16-3.75-3.91-5.55-7.77-5.7c-1.61-0.06-3.22-0.01-4.97-0.01c0,0.5,0,0.99,0,1.48
		c0,8.04,0,16.08,0,24.12c0,2.43-0.9,3.34-3.3,3.34c-4,0.01-8,0.01-12,0.01c-3.63,0-4.16-0.52-4.16-4.1
		c0-21.54,0.01-43.08,0.01-64.61c0-1.71,0.01-3.42-0.01-5.12c-0.01-0.97,0.3-1.46,1.38-1.61c9.8-1.39,19.65-1.9,29.53-1.24
		c5.57,0.37,10.96,1.68,15.82,4.53c5,2.93,7.53,7.59,8.71,13.11c1.13,5.3,0.2,10.29-2.38,14.95c-1.82,3.27-4.64,5.63-7.88,7.48
		C804.53,127.96,804.32,128.06,804.13,128.16z M779.08,102.91c0,5.99,0,11.76,0,17.56c2.4,0,4.73,0.09,7.04-0.03
		c2.26-0.12,4.46-0.63,6.36-1.95c2.69-1.87,3.6-4.59,3.45-7.72c-0.16-3.2-1.54-5.65-4.63-6.94
		C787.34,102.18,783.23,102.72,779.08,102.91z"/>
	<path d="M521.36,128.08c1.65,2.12,3.48,4.12,4.89,6.38c2.16,3.46,2.92,7.48,4,11.36c1.47,5.24,2.98,10.47,4.49,15.7
		c0.43,1.5-0.63,2.93-2.23,2.94c-4.96,0.01-9.91-0.04-14.87,0.07c-1.48,0.03-2.26-0.49-2.66-1.82c-1.08-3.62-2.19-7.24-3.24-10.87
		c-1.02-3.51-1.9-7.06-2.98-10.55c-1.19-3.87-4-5.67-7.96-5.79c-1.54-0.04-3.08-0.01-4.81-0.01c0,0.44,0,0.92,0,1.4
		c0,8.04,0,16.08,0,24.12c0,2.59-0.87,3.44-3.46,3.44c-4.21-0.01-8.41-0.01-12.62-0.01c-2.57-0.01-3.36-0.77-3.36-3.36
		c-0.01-22.66,0-45.32,0-67.98c0-3.95,0.02-3.87,4-4.39c8.91-1.18,17.84-1.51,26.8-0.94c5.61,0.36,11.05,1.66,15.94,4.54
		c5.03,2.96,7.55,7.65,8.71,13.24c1.08,5.22,0.17,10.14-2.34,14.72C527.74,123.79,524.68,126.24,521.36,128.08z M496.04,120.32
		c2.8,0,5.52,0.22,8.17-0.08c1.8-0.2,3.67-0.86,5.23-1.78c4.78-2.81,4.82-11.86-0.55-14.36c-4.17-1.94-8.49-1.4-12.85-1.17
		C496.04,108.86,496.04,114.6,496.04,120.32z"/>
	<path d="M421,51.51c0,0.56,0,1.05,0,1.55c0,8,0,15.99,0,23.99c0,2.53-0.87,3.41-3.36,3.42c-4.21,0-8.41,0.01-12.62,0
		c-2.73-0.01-3.47-0.74-3.47-3.52c0-22.66,0-45.32,0.01-67.98c0-0.87,0.01-1.75,0.01-2.62c0-0.78,0.33-1.16,1.16-1.28
		c9.38-1.37,18.81-1.81,28.27-1.39c4.31,0.19,8.49,1.05,12.57,2.44c8.35,2.85,12.73,8.81,13.71,17.43
		c0.98,8.57-3.44,16.75-11.15,20.61c0.04,0.11,0.05,0.26,0.13,0.33c4.42,3.46,6.51,8.29,7.97,13.51c1.83,6.56,3.7,13.12,5.55,19.67
		c0.36,1.27-0.71,2.79-2.03,2.8c-5.29,0.03-10.58,0.01-15.87,0.05c-0.96,0.01-1.39-0.52-1.63-1.25c-0.94-2.84-1.89-5.67-2.72-8.54
		c-1.3-4.47-2.42-8.99-3.76-13.44c-1.17-3.87-4.02-5.66-7.97-5.77C424.25,51.47,422.71,51.51,421,51.51z M421.04,36.32
		c2.8,0,5.52,0.22,8.17-0.08c1.8-0.2,3.67-0.86,5.23-1.78c4.79-2.81,4.82-11.86-0.55-14.36c-4.17-1.94-8.49-1.4-12.85-1.18
		C421.04,24.86,421.04,30.59,421.04,36.32z"/>
	<path d="M378.27,80.5c-2.67,0-5.33-0.04-8,0.02c-0.96,0.02-1.4-0.3-1.66-1.23c-1.59-5.59-3.26-11.17-4.86-16.76
		c-0.26-0.9-0.6-1.2-1.6-1.19c-5.54,0.07-11.08,0.04-16.61,0.01c-0.74,0-1.1,0.18-1.31,0.96c-1.5,5.62-3.06,11.22-4.56,16.85
		c-0.26,0.96-0.65,1.34-1.69,1.33c-5.12-0.06-10.25-0.02-15.37-0.03c-2.23,0-3.16-1.25-2.5-3.4c5.99-19.63,12-39.26,18-58.88
		c1.3-4.25,2.63-8.49,3.89-12.75c0.26-0.89,0.83-0.91,1.52-0.91c4.25,0.01,8.5,0.01,12.74,0.01c2.92,0,5.83,0.01,8.75-0.01
		c0.85-0.01,1.35,0.24,1.63,1.14c4.01,12.94,8.05,25.86,12.09,38.79c3.4,10.91,6.81,21.81,10.21,32.72c0.6,1.93-0.37,3.27-2.42,3.28
		c-2.75,0.01-5.5,0-8.25,0C378.27,80.47,378.27,80.49,378.27,80.5z M353.76,24.32c-2.03,7.39-3.97,14.46-5.92,21.58
		c4.22,0,8.18,0,12.22,0C357.97,38.75,355.91,31.71,353.76,24.32z"/>
	<path d="M576.29,88.54c3.54,0,7.08,0.01,10.62,0c0.8,0,1.4,0.09,1.69,1.05c4.14,13.38,8.31,26.74,12.48,40.11
		c3.27,10.47,6.54,20.94,9.81,31.4c0.64,2.05-0.29,3.36-2.41,3.37c-5.41,0.01-10.83,0-16.24,0.06c-0.99,0.01-1.38-0.36-1.64-1.26
		c-1.59-5.55-3.25-11.08-4.83-16.64c-0.27-0.94-0.58-1.3-1.66-1.28c-5.5,0.08-10.99,0.06-16.49,0.01c-0.88-0.01-1.21,0.26-1.44,1.11
		c-1.49,5.62-3.07,11.22-4.56,16.85c-0.24,0.9-0.65,1.18-1.56,1.17c-5.16-0.04-10.33-0.01-15.49-0.02c-2.16,0-3.13-1.27-2.51-3.31
		c4.11-13.47,8.24-26.94,12.36-40.41c3.2-10.45,6.4-20.89,9.57-31.35c0.24-0.8,0.74-0.88,1.41-0.88c3.62,0.01,7.25,0,10.87,0
		C576.29,88.53,576.29,88.53,576.29,88.54z M582.06,129.96c-2.1-7.21-4.16-14.27-6.31-21.63c-2.03,7.39-3.97,14.46-5.93,21.63
		C574.03,129.96,577.97,129.96,582.06,129.96z"/>
	<path d="M432.54,105.15c0,3.91,0,7.76,0,11.85c0.44,0,0.91,0,1.39,0c7.37,0,14.75,0,22.12,0c2.65,0,3.4,0.76,3.4,3.43
		c0.01,3.37,0.03,6.75,0.04,10.12c0.01,2.11-0.84,2.95-2.94,2.95c-7.58-0.01-15.16,0.01-22.75-0.04c-1.14-0.01-1.38,0.34-1.36,1.41
		c0.07,4.12,0.03,8.25,0.04,12.37c0,0.16,0.04,0.32,0.09,0.65c0.91,0,1.81,0,2.71,0c7.67,0,15.33,0,23,0.01
		c0.75,0,1.5,0.01,2.25,0.09c1.18,0.13,2.05,0.93,2.07,2.12c0.06,4.08,0.08,8.16,0.02,12.25c-0.01,1.11-0.76,1.85-1.89,2.01
		c-0.82,0.12-1.66,0.11-2.49,0.11c-13.91,0-27.83-0.01-41.74-0.02c-2.75,0-3.5-0.75-3.5-3.47c0-23,0-46,0-68.99
		c0-2.68,0.76-3.46,3.39-3.46c13.92-0.01,27.83-0.01,41.75-0.01c2.19,0,2.9,0.71,2.92,2.92c0.04,3.71,0.08,7.41,0.12,11.12
		c0.02,1.57-0.97,2.55-2.57,2.55c-8.46-0.01-16.91-0.01-25.37-0.02C433.04,105.09,432.84,105.13,432.54,105.15z"/>
	<path d="M289.51,105.15c0,3.97,0,7.83,0,11.85c0.53,0,1.02,0,1.51,0c7.33,0,14.67,0,22,0c2.68,0,3.43,0.75,3.44,3.39
		c0.01,3.42,0.03,6.83,0.04,10.25c0,2.01-0.87,2.86-2.9,2.86c-7.58-0.01-15.16,0.01-22.75-0.04c-1.08-0.01-1.42,0.24-1.4,1.38
		c0.07,4.28,0.03,8.57,0.03,13.06c0.99,0,1.89,0,2.78,0c7.67,0,15.33,0,23,0.01c0.67,0,1.33,0.01,2,0.06
		c1.49,0.12,2.36,0.89,2.38,2.36c0.06,3.96,0.06,7.92,0.02,11.87c-0.01,1.24-0.77,2.02-1.99,2.19c-0.78,0.11-1.58,0.09-2.37,0.09
		c-13.91,0-27.83-0.01-41.74-0.02c-2.82,0-3.54-0.73-3.54-3.56c0-22.96,0-45.91,0-68.87c0-2.74,0.75-3.49,3.48-3.5
		c13.83,0,27.66-0.01,41.5-0.01c2.38,0,3.06,0.67,3.08,3.01c0.04,3.66,0.08,7.33,0.12,10.99c0.02,1.58-0.95,2.58-2.53,2.58
		c-8.5-0.01-17-0.02-25.5-0.02C289.99,105.09,289.83,105.12,289.51,105.15z"/>
	<path d="M721.54,49.48c0,4.9,0,9.59,0,14.41c1,0,1.9,0,2.81,0c7.67,0,15.33,0,23,0.01c0.75,0,1.51-0.01,2.24,0.1
		c1.15,0.17,1.99,0.84,2.01,2.04c0.07,4.12,0.08,8.25,0.02,12.37c-0.01,1.05-0.74,1.78-1.81,1.94c-0.86,0.13-1.74,0.13-2.61,0.13
		c-13.87,0-27.75-0.01-41.62-0.02c-2.83,0-3.57-0.73-3.57-3.53c0-22.96,0-45.91,0-68.87c0-2.8,0.74-3.53,3.57-3.53
		c13.79,0,27.58-0.01,41.37-0.01c2.45,0,3.1,0.65,3.12,3.1c0.03,3.62,0.07,7.25,0.11,10.87c0.02,1.65-0.94,2.62-2.62,2.61
		c-8.5-0.01-17-0.02-25.5-0.02c-0.12,0-0.24,0.04-0.49,0.07c0,3.88,0,7.77,0,11.84c0.45,0,0.94,0,1.42,0c7.33,0,14.67,0,22,0
		c2.75,0,3.46,0.72,3.47,3.48c0.01,3.33,0.02,6.67,0.04,10c0.01,2.2-0.82,3.02-2.99,3.02c-7.54-0.01-15.08-0.01-22.62-0.02
		C722.47,49.48,722.06,49.48,721.54,49.48z"/>
	<path d="M507.44,3.53c7.65-0.12,13.91,0.72,19.89,3.21c1.61,0.67,1.59,0.68,1.13,2.4c-0.97,3.7-1.92,7.4-2.87,11.11
		c-0.52,2.03-1.62,2.65-3.6,1.92c-5.23-1.94-10.62-2.35-16.11-1.69c-9.83,1.19-16.65,8.2-17.7,18.07c-0.44,4.1-0.31,8.15,0.89,12.12
		c2.47,8.19,8.17,12.57,16.45,13.81c5.7,0.86,11.29,0.2,16.77-1.47c1.53-0.47,2.85,0.22,3.18,1.83c0.83,4.03,1.6,8.07,2.32,12.12
		c0.06,0.33-0.42,1.01-0.77,1.11c-3.18,0.94-6.35,1.97-9.6,2.6c-5.22,1.01-10.53,1.2-15.8,0.55C489.5,79.74,479.1,75.11,472.66,64
		c-2.74-4.74-4.16-9.95-4.78-15.38c-1-8.69,0.1-17.05,4.26-24.82c4.87-9.11,12.34-15.11,22.27-18c2.03-0.59,4.09-1.13,6.18-1.47
		C503.25,3.89,505.95,3.7,507.44,3.53z"/>
	<path d="M629,105.47c-5.55,0-11,0-16.45,0c-2.61,0-3.24-0.61-3.25-3.25c-0.01-3.54,0-7.08,0.03-10.62c0.02-2.23,0.8-3.05,3.01-3.06
		c17.75-0.01,35.49-0.01,53.24,0c2.14,0,2.91,0.81,2.93,2.98c0.02,3.58,0.03,7.17,0.01,10.75c-0.01,2.42-0.83,3.2-3.22,3.19
		c-5-0.01-10,0-15,0c-0.54,0-1.07,0-1.7,0c-0.04,0.41-0.11,0.73-0.11,1.04c-0.01,17.96-0.02,35.91,0,53.87c0,3.67-0.37,4.13-4,4.12
		c-4.04-0.01-8.08-0.02-12.12-0.03c-2.57-0.01-3.36-0.79-3.37-3.36c0-18.08,0-36.16,0-54.24C629,106.37,629,105.87,629,105.47z"/>
	<path class="st0" d="M111.96,89.73c-2.26,0-4.38,0.01-6.5-0.01c-0.96-0.01-0.9,0.61-0.89,1.27c0.03,3.21,0.09,6.42,0.06,9.62
		c-0.02,2.84-2.46,4.73-4.93,3.86c-1.67-0.59-2.59-1.86-2.61-3.6c-0.05-3.29,0-6.58,0.1-9.87c0.03-0.96-0.11-1.35-1.18-1.3
		c-1.7,0.09-3.42,0.06-5.12-0.01c-0.96-0.04-1.2,0.31-1.19,1.22c0.06,5.62,0.06,11.25,0.1,16.87c0.01,1.85-0.77,3.08-2.41,4.01
		c-2,1.13-4.96-0.75-5.13-2.79c-0.07-0.83-0.07-1.66-0.07-2.49c0.02-5.29,0.04-10.58,0.08-15.87c0.01-0.7-0.23-0.95-0.94-0.94
		c-1.79,0.03-3.58,0.05-5.37-0.02c-0.97-0.04-1.21,0.33-1.19,1.23c0.08,3,0.01,6,0.15,8.99c0.16,3.36-1.96,4.69-3.68,4.71
		c-2.32,0.03-4.05-1.79-3.89-4.75c0.16-3.03,0.02-6.08,0.06-9.12c0.01-0.84-0.31-1.07-1.11-1.05c-1.71,0.05-3.42,0.08-5.12,0
		c-1.02-0.05-1.26,0.31-1.25,1.28c0.05,5.58,0.03,11.16,0.04,16.74c0,1.58-0.34,2.96-1.84,3.84c-2.47,1.44-5.45-0.1-5.68-2.96
		c-0.06-0.79-0.03-1.58-0.02-2.37c0.02-5.12,0.02-10.25,0.07-15.37c0.01-0.88-0.27-1.17-1.14-1.16c-3.33,0.05-6.67,0.09-10,0.03
		c-2.23-0.04-3.77-1.49-3.88-3.45c-0.13-2.24,1.31-3.95,3.65-4.02c3.33-0.1,6.66-0.06,9.99,0.02c1.11,0.03,1.42-0.26,1.4-1.39
		c-0.1-5.5-0.11-11-0.16-16.49c-0.01-1.43,0.25-2.72,1.44-3.69c2.09-1.71,5.42-0.56,5.96,2.1c0.15,0.73,0.18,1.49,0.18,2.24
		c0.01,5.33,0.03,10.66-0.01,16c-0.01,1,0.27,1.3,1.27,1.25c1.7-0.09,3.42-0.07,5.12-0.01c0.92,0.04,1.14-0.33,1.13-1.17
		c-0.08-5.62-0.18-11.25-0.15-16.87c0.01-1.04,0.37-2.26,0.99-3.08c0.79-1.06,2.04-1.76,3.52-1.3c1.66,0.51,3,1.43,3.05,3.35
		c0.07,2.62,0,5.24-0.01,7.87c-0.01,3.33,0,6.67-0.07,10c-0.02,0.94,0.28,1.24,1.22,1.2c1.71-0.07,3.42-0.07,5.12-0.02
		c0.87,0.03,1.18-0.25,1.17-1.13c-0.08-5-0.12-10-0.16-14.99c-0.01-0.87-0.07-1.75,0.02-2.62c0.22-2.13,2.05-3.85,3.94-3.81
		c1.9,0.05,3.58,1.72,3.71,3.86c0.1,1.53,0,3.08,0,4.62c-0.02,4.29-0.02,8.58-0.09,12.87c-0.01,0.91,0.23,1.26,1.19,1.22
		c1.7-0.07,3.42-0.08,5.12-0.01c0.96,0.04,1.21-0.32,1.19-1.23c-0.08-5.62-0.14-11.24-0.17-16.87c-0.01-2.28,0.77-3.39,2.71-4.16
		c1.94-0.77,4.43,0.64,4.78,2.7c0.07,0.41,0.11,0.83,0.11,1.24c-0.02,5.67-0.03,11.33-0.11,17c-0.02,1.07,0.3,1.38,1.33,1.33
		c1.7-0.08,3.42-0.08,5.12-0.03c0.88,0.03,1.14-0.27,1.13-1.14c-0.07-5.79-0.07-11.58-0.12-17.37c-0.01-1.64,0.71-2.78,2.14-3.5
		c2.47-1.23,5.34,0.37,5.38,3.14c0.08,5.79,0.06,11.58-0.02,17.37c-0.01,1.17,0.3,1.53,1.44,1.51c3.24-0.07,6.49-0.12,9.74-0.04
		c2.36,0.06,3.92,1.73,3.85,3.87c-0.07,2.14-1.61,3.59-3.96,3.62c-3.25,0.04-6.5,0.03-9.75-0.02c-1.01-0.02-1.36,0.24-1.35,1.33
		c0.09,5.62,0.07,11.25,0.12,16.87c0.01,1.64-0.55,2.92-1.99,3.77c-2.19,1.28-4.92,0.05-5.42-2.45c-0.11-0.57-0.15-1.16-0.15-1.74
		c0-5.58,0.02-11.16,0.02-16.75C112.06,90.46,112.01,90.18,111.96,89.73z"/>
	<path class="st0" d="M29.93,54.86c0.18-3.36-0.01-6.8,0.63-10.07c1.39-7.18,8.21-14.45,16.85-14.55c5.17-0.06,10.33-0.1,15.5-0.14
		c1.92-0.01,3.55,0.51,4.32,2.5c0.89,2.28-0.57,4.7-3.02,4.93c-0.95,0.09-1.91,0.05-2.87,0.05c-4,0-8-0.02-12-0.01
		c-6.83,0.01-11.68,4.74-11.77,11.57c-0.06,4.79,0.04,9.58,0,14.37c-0.02,2.67-2.17,4.33-4.69,3.72c-1.6-0.39-2.75-1.98-2.77-3.99
		c-0.04-2.79-0.01-5.58-0.01-8.37C30.04,54.86,29.99,54.86,29.93,54.86z"/>
	<path class="st0" d="M117.01,29.95c3.36,0.17,6.77,0.05,10.08,0.58c7.89,1.28,14.21,8.35,14.61,16.33
		c0.28,5.57,0.18,11.16,0.17,16.74c0,2.17-1.88,3.88-3.96,3.85c-2-0.03-3.59-1.76-3.59-4.03c0-4.62,0.06-9.25,0.08-13.87
		c0.01-2.78-0.67-5.37-2.37-7.61c-2.24-2.96-5.31-4.35-8.98-4.37c-4.33-0.02-8.66,0.06-13,0.08c-0.79,0-1.59-0.02-2.37-0.12
		c-1.93-0.24-3.25-1.85-3.2-3.81c0.04-1.81,1.41-3.42,3.26-3.48c3.08-0.11,6.16-0.03,9.24-0.03
		C117.01,30.12,117.01,30.03,117.01,29.95z"/>
	<path class="st0" d="M55.12,141.95c-3.2-0.13-6.43-0.02-9.59-0.43c-7.28-0.94-13.46-6.85-14.99-14.03
		c-0.22-1.05-0.41-2.14-0.42-3.21c-0.03-5.29-0.01-10.57,0.02-15.86c0.01-1.58,0.71-2.82,2.18-3.49c1.47-0.67,2.83-0.38,4.08,0.6
		c0.9,0.71,1.16,1.67,1.16,2.76c-0.02,4.54-0.09,9.08,0.02,13.61c0.04,1.8,0.19,3.71,0.79,5.38c1.55,4.3,5.96,7.16,10.6,7.17
		c4.33,0.01,8.66-0.06,12.99-0.08c0.79,0,1.59-0.01,2.36,0.09c1.92,0.26,3.26,1.93,3.17,3.84c-0.09,1.88-1.5,3.44-3.39,3.49
		c-2.99,0.08-5.99,0.02-8.99,0.02C55.12,141.86,55.12,141.9,55.12,141.95z"/>
	<path class="st0" d="M116.83,141.79c-3,0-5.99,0.05-8.99-0.02c-1.59-0.04-2.6-1.03-3.13-2.47c-0.53-1.42-0.15-2.68,0.85-3.79
		c0.98-1.08,2.26-1.14,3.56-1.14c4.45,0.01,8.91,0.07,13.36,0.04c1.19-0.01,2.43-0.1,3.58-0.41c5.16-1.4,8.41-5.71,8.39-11.04
		c-0.02-4.66-0.09-9.33-0.16-13.99c-0.03-1.76,0.48-3.17,2.15-4.02c2.26-1.15,4.93,0.14,5.38,2.64c0.01,0.08,0.04,0.16,0.04,0.25
		c-0.11,6.28,0.24,12.61-0.45,18.82c-0.94,8.51-8.41,14.81-16.96,15.11c-2.54,0.09-5.08,0.01-7.62,0.01
		C116.83,141.79,116.83,141.79,116.83,141.79z"/>
	<path class="st0" d="M640.48,42.5c0-7.21,0.02-14.41-0.02-21.62c-0.01-1,0.3-1.38,1.3-1.47c4.31-0.42,8.59-0.35,12.75,0.9
		c7,2.1,11.09,7.03,12.64,14c1.41,6.31,0.84,12.6-1.4,18.67c-2.38,6.48-7.22,10.17-13.8,11.8c-3.52,0.87-7.1,0.77-10.68,0.75
		c-0.81-0.01-0.84-0.42-0.83-1.03c0.01-7.33,0.01-14.66,0.01-22C640.46,42.5,640.47,42.5,640.48,42.5z"/>
	<path class="st0" d="M274.07,66.27c0-6.06,0-11.95,0-17.93c3.72,0.08,7.38-0.06,10.95,0.95c5.1,1.43,7.59,5.67,6.23,10.63
		c-0.76,2.79-2.71,4.48-5.34,5.3c-1.77,0.55-3.64,0.87-5.49,1.02C278.37,66.4,276.28,66.27,274.07,66.27z"/>
	<path class="st0" d="M274.1,18.73c3.63-0.22,7.21-0.42,10.73,0.49c3.25,0.84,4.78,2.68,5.11,5.97c0.28,2.78-1.12,5.52-3.77,6.75
		c-1.48,0.69-3.14,1.11-4.76,1.36c-1.93,0.29-3.9,0.26-5.85,0.36c-0.45,0.02-0.9,0-1.46,0C274.1,28.67,274.1,23.78,274.1,18.73z"/>
	<path class="st0" d="M726.5,127.43c-0.01,3.71-0.53,8.17-2.52,12.3c-1.74,3.62-3.98,6.89-7.88,8.49
		c-6.46,2.65-13.76,0.84-18.11-5.77c-2.59-3.96-3.57-8.4-3.92-12.99c-0.33-4.33-0.08-8.66,1.2-12.85c1.14-3.73,2.97-7.08,5.96-9.63
		c6.12-5.2,14.91-4.29,19.96,1.99C724.93,113.61,726.62,119.23,726.5,127.43z"/>
	<path class="st0" d="M587.49,42.56c0.01,4.54-0.5,8.99-2.5,13.13c-1.75,3.63-3.98,6.9-7.88,8.51c-6.43,2.66-13.75,0.91-18.12-5.76
		c-2.6-3.96-3.57-8.41-3.92-13c-0.33-4.33-0.13-8.68,1.22-12.86c1.62-5.01,4.2-9.35,9.23-11.69c5.47-2.55,11.86-1.3,15.89,3.18
		c3.95,4.39,5.73,9.68,6.08,15.5C587.54,40.56,587.49,41.56,587.49,42.56z"/>
	<path class="st0" d="M779.08,102.91c4.14-0.2,8.26-0.73,12.22,0.93c3.08,1.29,4.47,3.73,4.63,6.94c0.16,3.13-0.76,5.84-3.45,7.72
		c-1.9,1.33-4.1,1.84-6.36,1.95c-2.32,0.12-4.64,0.03-7.04,0.03C779.08,114.68,779.08,108.91,779.08,102.91z"/>
	<path class="st0" d="M496.04,120.32c0-5.72,0-11.46,0-17.39c4.37-0.23,8.68-0.77,12.85,1.17c5.38,2.5,5.34,11.54,0.55,14.36
		c-1.56,0.92-3.44,1.58-5.23,1.78C501.56,120.54,498.84,120.32,496.04,120.32z"/>
	<path class="st0" d="M421.04,36.32c0-5.72,0-11.46,0-17.39c4.37-0.22,8.68-0.76,12.85,1.18c5.37,2.5,5.33,11.54,0.55,14.36
		c-1.56,0.92-3.44,1.58-5.23,1.78C426.56,36.54,423.84,36.32,421.04,36.32z"/>
	<path class="st0" d="M353.76,24.32c2.16,7.38,4.21,14.43,6.3,21.58c-4.04,0-8,0-12.22,0C349.79,38.79,351.73,31.72,353.76,24.32z"
		/>
	<path class="st0" d="M582.06,129.96c-4.09,0-8.03,0-12.24,0c1.97-7.17,3.91-14.24,5.93-21.63
		C577.9,115.69,579.96,122.74,582.06,129.96z"/>
</g>
</svg>
